<?xml version="1.0" encoding="utf-8"?><svg xmlns="http://www.w3.org/2000/svg" version="1.1" xmlns:xlink="http://www.w3.org/1999/xlink" viewBox="0 0 248 248"><rect width="248" height="248" fill="#FFFFFF"></rect><path shape-rendering="geometricPrecision" d="M 8 8 v 56 h 56 v -56 h -56 z M 16 16 v 40 h 40 v -40 h -40 z M 240 8 v 56 h -56 v -56 h 56 z M 232 16 v 40 h -40 v -40 h 40 z M 8 240 v -56 h 56 v 56 h -56 z M 16 232 v -40 h 40 v 40 h -40 z" fill-rule="evenodd" fill="#4A4A4A"/><path shape-rendering="geometricPrecision" d="M 24 24 v 24 h 24 v -24 h -24 z M 224 24 v 24 h -24 v -24 h 24 z M 24 224 v -24 h 24 v 24 h -24 z" fill="#4A4A4A"/><path shape-rendering="geometricPrecision" d="M 8 104 v 8 h 8 v -8 h -8 z M 8 120 v 8 h 8 v -8 h -8 z M 8 152 v 8 h 8 v -8 h -8 z M 8 160 v 8 h 8 v -8 h -8 z M 16 72 v 8 h 8 v -8 h -8 z M 16 80 v 8 h 8 v -8 h -8 z M 16 88 v 8 h 8 v -8 h -8 z M 16 96 v 8 h 8 v -8 h -8 z M 16 112 v 8 h 8 v -8 h -8 z M 16 152 v 8 h 8 v -8 h -8 z M 16 160 v 8 h 8 v -8 h -8 z M 24 88 v 8 h 8 v -8 h -8 z M 24 96 v 8 h 8 v -8 h -8 z M 24 104 v 8 h 8 v -8 h -8 z M 24 128 v 8 h 8 v -8 h -8 z M 24 160 v 8 h 8 v -8 h -8 z M 32 80 v 8 h 8 v -8 h -8 z M 32 88 v 8 h 8 v -8 h -8 z M 32 96 v 8 h 8 v -8 h -8 z M 32 112 v 8 h 8 v -8 h -8 z M 32 136 v 8 h 8 v -8 h -8 z M 32 152 v 8 h 8 v -8 h -8 z M 40 72 v 8 h 8 v -8 h -8 z M 40 104 v 8 h 8 v -8 h -8 z M 40 112 v 8 h 8 v -8 h -8 z M 40 136 v 8 h 8 v -8 h -8 z M 40 144 v 8 h 8 v -8 h -8 z M 40 160 v 8 h 8 v -8 h -8 z M 40 168 v 8 h 8 v -8 h -8 z M 48 80 v 8 h 8 v -8 h -8 z M 48 88 v 8 h 8 v -8 h -8 z M 48 96 v 8 h 8 v -8 h -8 z M 48 104 v 8 h 8 v -8 h -8 z M 48 120 v 8 h 8 v -8 h -8 z M 48 128 v 8 h 8 v -8 h -8 z M 48 136 v 8 h 8 v -8 h -8 z M 48 144 v 8 h 8 v -8 h -8 z M 48 160 v 8 h 8 v -8 h -8 z M 56 72 v 8 h 8 v -8 h -8 z M 56 88 v 8 h 8 v -8 h -8 z M 56 104 v 8 h 8 v -8 h -8 z M 56 120 v 8 h 8 v -8 h -8 z M 56 136 v 8 h 8 v -8 h -8 z M 56 152 v 8 h 8 v -8 h -8 z M 56 168 v 8 h 8 v -8 h -8 z M 64 80 v 8 h 8 v -8 h -8 z M 64 88 v 8 h 8 v -8 h -8 z M 64 96 v 8 h 8 v -8 h -8 z M 64 104 v 8 h 8 v -8 h -8 z M 64 128 v 8 h 8 v -8 h -8 z M 64 144 v 8 h 8 v -8 h -8 z M 64 152 v 8 h 8 v -8 h -8 z M 64 160 v 8 h 8 v -8 h -8 z M 64 168 v 8 h 8 v -8 h -8 z M 72 8 v 8 h 8 v -8 h -8 z M 72 24 v 8 h 8 v -8 h -8 z M 72 40 v 8 h 8 v -8 h -8 z M 72 56 v 8 h 8 v -8 h -8 z M 72 80 v 8 h 8 v -8 h -8 z M 72 88 v 8 h 8 v -8 h -8 z M 72 96 v 8 h 8 v -8 h -8 z M 72 104 v 8 h 8 v -8 h -8 z M 72 136 v 8 h 8 v -8 h -8 z M 72 144 v 8 h 8 v -8 h -8 z M 72 152 v 8 h 8 v -8 h -8 z M 72 200 v 8 h 8 v -8 h -8 z M 72 224 v 8 h 8 v -8 h -8 z M 80 8 v 8 h 8 v -8 h -8 z M 80 16 v 8 h 8 v -8 h -8 z M 80 32 v 8 h 8 v -8 h -8 z M 80 64 v 8 h 8 v -8 h -8 z M 80 72 v 8 h 8 v -8 h -8 z M 80 80 v 8 h 8 v -8 h -8 z M 80 104 v 8 h 8 v -8 h -8 z M 80 112 v 8 h 8 v -8 h -8 z M 80 128 v 8 h 8 v -8 h -8 z M 80 136 v 8 h 8 v -8 h -8 z M 80 168 v 8 h 8 v -8 h -8 z M 80 176 v 8 h 8 v -8 h -8 z M 80 184 v 8 h 8 v -8 h -8 z M 80 208 v 8 h 8 v -8 h -8 z M 80 232 v 8 h 8 v -8 h -8 z M 88 8 v 8 h 8 v -8 h -8 z M 88 32 v 8 h 8 v -8 h -8 z M 88 48 v 8 h 8 v -8 h -8 z M 88 56 v 8 h 8 v -8 h -8 z M 88 64 v 8 h 8 v -8 h -8 z M 88 88 v 8 h 8 v -8 h -8 z M 88 120 v 8 h 8 v -8 h -8 z M 88 128 v 8 h 8 v -8 h -8 z M 88 136 v 8 h 8 v -8 h -8 z M 88 144 v 8 h 8 v -8 h -8 z M 88 168 v 8 h 8 v -8 h -8 z M 88 176 v 8 h 8 v -8 h -8 z M 88 200 v 8 h 8 v -8 h -8 z M 88 216 v 8 h 8 v -8 h -8 z M 88 224 v 8 h 8 v -8 h -8 z M 88 232 v 8 h 8 v -8 h -8 z M 96 8 v 8 h 8 v -8 h -8 z M 96 24 v 8 h 8 v -8 h -8 z M 96 48 v 8 h 8 v -8 h -8 z M 96 72 v 8 h 8 v -8 h -8 z M 96 88 v 8 h 8 v -8 h -8 z M 96 112 v 8 h 8 v -8 h -8 z M 96 120 v 8 h 8 v -8 h -8 z M 96 136 v 8 h 8 v -8 h -8 z M 96 144 v 8 h 8 v -8 h -8 z M 96 152 v 8 h 8 v -8 h -8 z M 96 176 v 8 h 8 v -8 h -8 z M 96 224 v 8 h 8 v -8 h -8 z M 104 8 v 8 h 8 v -8 h -8 z M 104 16 v 8 h 8 v -8 h -8 z M 104 40 v 8 h 8 v -8 h -8 z M 104 56 v 8 h 8 v -8 h -8 z M 104 64 v 8 h 8 v -8 h -8 z M 104 72 v 8 h 8 v -8 h -8 z M 104 88 v 8 h 8 v -8 h -8 z M 104 96 v 8 h 8 v -8 h -8 z M 104 120 v 8 h 8 v -8 h -8 z M 104 128 v 8 h 8 v -8 h -8 z M 104 144 v 8 h 8 v -8 h -8 z M 104 176 v 8 h 8 v -8 h -8 z M 104 184 v 8 h 8 v -8 h -8 z M 104 192 v 8 h 8 v -8 h -8 z M 104 208 v 8 h 8 v -8 h -8 z M 104 224 v 8 h 8 v -8 h -8 z M 104 232 v 8 h 8 v -8 h -8 z M 112 8 v 8 h 8 v -8 h -8 z M 112 24 v 8 h 8 v -8 h -8 z M 112 32 v 8 h 8 v -8 h -8 z M 112 40 v 8 h 8 v -8 h -8 z M 112 48 v 8 h 8 v -8 h -8 z M 112 64 v 8 h 8 v -8 h -8 z M 112 72 v 8 h 8 v -8 h -8 z M 112 80 v 8 h 8 v -8 h -8 z M 112 96 v 8 h 8 v -8 h -8 z M 112 120 v 8 h 8 v -8 h -8 z M 112 128 v 8 h 8 v -8 h -8 z M 112 144 v 8 h 8 v -8 h -8 z M 112 152 v 8 h 8 v -8 h -8 z M 112 168 v 8 h 8 v -8 h -8 z M 112 176 v 8 h 8 v -8 h -8 z M 112 184 v 8 h 8 v -8 h -8 z M 112 208 v 8 h 8 v -8 h -8 z M 112 232 v 8 h 8 v -8 h -8 z M 120 8 v 8 h 8 v -8 h -8 z M 120 16 v 8 h 8 v -8 h -8 z M 120 24 v 8 h 8 v -8 h -8 z M 120 40 v 8 h 8 v -8 h -8 z M 120 48 v 8 h 8 v -8 h -8 z M 120 56 v 8 h 8 v -8 h -8 z M 120 96 v 8 h 8 v -8 h -8 z M 120 112 v 8 h 8 v -8 h -8 z M 120 144 v 8 h 8 v -8 h -8 z M 120 184 v 8 h 8 v -8 h -8 z M 120 200 v 8 h 8 v -8 h -8 z M 120 208 v 8 h 8 v -8 h -8 z M 120 224 v 8 h 8 v -8 h -8 z M 120 232 v 8 h 8 v -8 h -8 z M 128 24 v 8 h 8 v -8 h -8 z M 128 48 v 8 h 8 v -8 h -8 z M 128 64 v 8 h 8 v -8 h -8 z M 128 128 v 8 h 8 v -8 h -8 z M 128 144 v 8 h 8 v -8 h -8 z M 128 168 v 8 h 8 v -8 h -8 z M 128 192 v 8 h 8 v -8 h -8 z M 128 200 v 8 h 8 v -8 h -8 z M 128 208 v 8 h 8 v -8 h -8 z M 128 224 v 8 h 8 v -8 h -8 z M 136 8 v 8 h 8 v -8 h -8 z M 136 16 v 8 h 8 v -8 h -8 z M 136 24 v 8 h 8 v -8 h -8 z M 136 48 v 8 h 8 v -8 h -8 z M 136 56 v 8 h 8 v -8 h -8 z M 136 64 v 8 h 8 v -8 h -8 z M 136 72 v 8 h 8 v -8 h -8 z M 136 80 v 8 h 8 v -8 h -8 z M 136 88 v 8 h 8 v -8 h -8 z M 136 96 v 8 h 8 v -8 h -8 z M 136 104 v 8 h 8 v -8 h -8 z M 136 136 v 8 h 8 v -8 h -8 z M 136 144 v 8 h 8 v -8 h -8 z M 136 160 v 8 h 8 v -8 h -8 z M 136 168 v 8 h 8 v -8 h -8 z M 136 176 v 8 h 8 v -8 h -8 z M 136 184 v 8 h 8 v -8 h -8 z M 136 192 v 8 h 8 v -8 h -8 z M 136 208 v 8 h 8 v -8 h -8 z M 136 224 v 8 h 8 v -8 h -8 z M 136 232 v 8 h 8 v -8 h -8 z M 144 24 v 8 h 8 v -8 h -8 z M 144 32 v 8 h 8 v -8 h -8 z M 144 48 v 8 h 8 v -8 h -8 z M 144 88 v 8 h 8 v -8 h -8 z M 144 96 v 8 h 8 v -8 h -8 z M 144 112 v 8 h 8 v -8 h -8 z M 144 128 v 8 h 8 v -8 h -8 z M 144 136 v 8 h 8 v -8 h -8 z M 144 168 v 8 h 8 v -8 h -8 z M 144 176 v 8 h 8 v -8 h -8 z M 144 184 v 8 h 8 v -8 h -8 z M 144 208 v 8 h 8 v -8 h -8 z M 144 216 v 8 h 8 v -8 h -8 z M 144 232 v 8 h 8 v -8 h -8 z M 152 8 v 8 h 8 v -8 h -8 z M 152 24 v 8 h 8 v -8 h -8 z M 152 56 v 8 h 8 v -8 h -8 z M 152 64 v 8 h 8 v -8 h -8 z M 152 88 v 8 h 8 v -8 h -8 z M 152 96 v 8 h 8 v -8 h -8 z M 152 120 v 8 h 8 v -8 h -8 z M 152 128 v 8 h 8 v -8 h -8 z M 152 136 v 8 h 8 v -8 h -8 z M 152 168 v 8 h 8 v -8 h -8 z M 152 184 v 8 h 8 v -8 h -8 z M 152 192 v 8 h 8 v -8 h -8 z M 152 200 v 8 h 8 v -8 h -8 z M 152 224 v 8 h 8 v -8 h -8 z M 152 232 v 8 h 8 v -8 h -8 z M 160 16 v 8 h 8 v -8 h -8 z M 160 32 v 8 h 8 v -8 h -8 z M 160 40 v 8 h 8 v -8 h -8 z M 160 64 v 8 h 8 v -8 h -8 z M 160 104 v 8 h 8 v -8 h -8 z M 160 112 v 8 h 8 v -8 h -8 z M 160 120 v 8 h 8 v -8 h -8 z M 160 136 v 8 h 8 v -8 h -8 z M 160 144 v 8 h 8 v -8 h -8 z M 160 160 v 8 h 8 v -8 h -8 z M 160 176 v 8 h 8 v -8 h -8 z M 160 184 v 8 h 8 v -8 h -8 z M 160 208 v 8 h 8 v -8 h -8 z M 160 224 v 8 h 8 v -8 h -8 z M 168 8 v 8 h 8 v -8 h -8 z M 168 24 v 8 h 8 v -8 h -8 z M 168 32 v 8 h 8 v -8 h -8 z M 168 56 v 8 h 8 v -8 h -8 z M 168 80 v 8 h 8 v -8 h -8 z M 168 104 v 8 h 8 v -8 h -8 z M 168 120 v 8 h 8 v -8 h -8 z M 168 128 v 8 h 8 v -8 h -8 z M 168 144 v 8 h 8 v -8 h -8 z M 168 160 v 8 h 8 v -8 h -8 z M 168 168 v 8 h 8 v -8 h -8 z M 168 176 v 8 h 8 v -8 h -8 z M 168 184 v 8 h 8 v -8 h -8 z M 168 192 v 8 h 8 v -8 h -8 z M 168 200 v 8 h 8 v -8 h -8 z M 176 72 v 8 h 8 v -8 h -8 z M 176 80 v 8 h 8 v -8 h -8 z M 176 96 v 8 h 8 v -8 h -8 z M 176 120 v 8 h 8 v -8 h -8 z M 176 128 v 8 h 8 v -8 h -8 z M 176 144 v 8 h 8 v -8 h -8 z M 176 160 v 8 h 8 v -8 h -8 z M 176 168 v 8 h 8 v -8 h -8 z M 176 200 v 8 h 8 v -8 h -8 z M 176 216 v 8 h 8 v -8 h -8 z M 176 224 v 8 h 8 v -8 h -8 z M 176 232 v 8 h 8 v -8 h -8 z M 184 80 v 8 h 8 v -8 h -8 z M 184 96 v 8 h 8 v -8 h -8 z M 184 104 v 8 h 8 v -8 h -8 z M 184 112 v 8 h 8 v -8 h -8 z M 184 160 v 8 h 8 v -8 h -8 z M 184 168 v 8 h 8 v -8 h -8 z M 184 184 v 8 h 8 v -8 h -8 z M 184 200 v 8 h 8 v -8 h -8 z M 184 208 v 8 h 8 v -8 h -8 z M 184 224 v 8 h 8 v -8 h -8 z M 184 232 v 8 h 8 v -8 h -8 z M 192 80 v 8 h 8 v -8 h -8 z M 192 88 v 8 h 8 v -8 h -8 z M 192 96 v 8 h 8 v -8 h -8 z M 192 128 v 8 h 8 v -8 h -8 z M 192 144 v 8 h 8 v -8 h -8 z M 192 168 v 8 h 8 v -8 h -8 z M 192 200 v 8 h 8 v -8 h -8 z M 192 208 v 8 h 8 v -8 h -8 z M 200 72 v 8 h 8 v -8 h -8 z M 200 96 v 8 h 8 v -8 h -8 z M 200 136 v 8 h 8 v -8 h -8 z M 200 144 v 8 h 8 v -8 h -8 z M 200 168 v 8 h 8 v -8 h -8 z M 200 176 v 8 h 8 v -8 h -8 z M 200 184 v 8 h 8 v -8 h -8 z M 200 192 v 8 h 8 v -8 h -8 z M 200 200 v 8 h 8 v -8 h -8 z M 200 224 v 8 h 8 v -8 h -8 z M 208 80 v 8 h 8 v -8 h -8 z M 208 88 v 8 h 8 v -8 h -8 z M 208 96 v 8 h 8 v -8 h -8 z M 208 112 v 8 h 8 v -8 h -8 z M 208 128 v 8 h 8 v -8 h -8 z M 208 136 v 8 h 8 v -8 h -8 z M 208 168 v 8 h 8 v -8 h -8 z M 208 176 v 8 h 8 v -8 h -8 z M 208 192 v 8 h 8 v -8 h -8 z M 208 200 v 8 h 8 v -8 h -8 z M 208 216 v 8 h 8 v -8 h -8 z M 216 72 v 8 h 8 v -8 h -8 z M 216 88 v 8 h 8 v -8 h -8 z M 216 104 v 8 h 8 v -8 h -8 z M 216 112 v 8 h 8 v -8 h -8 z M 216 128 v 8 h 8 v -8 h -8 z M 216 136 v 8 h 8 v -8 h -8 z M 216 152 v 8 h 8 v -8 h -8 z M 216 168 v 8 h 8 v -8 h -8 z M 216 192 v 8 h 8 v -8 h -8 z M 216 200 v 8 h 8 v -8 h -8 z M 216 208 v 8 h 8 v -8 h -8 z M 216 232 v 8 h 8 v -8 h -8 z M 224 80 v 8 h 8 v -8 h -8 z M 224 88 v 8 h 8 v -8 h -8 z M 224 104 v 8 h 8 v -8 h -8 z M 224 112 v 8 h 8 v -8 h -8 z M 224 136 v 8 h 8 v -8 h -8 z M 224 144 v 8 h 8 v -8 h -8 z M 224 168 v 8 h 8 v -8 h -8 z M 224 184 v 8 h 8 v -8 h -8 z M 224 192 v 8 h 8 v -8 h -8 z M 224 224 v 8 h 8 v -8 h -8 z M 232 72 v 8 h 8 v -8 h -8 z M 232 88 v 8 h 8 v -8 h -8 z M 232 96 v 8 h 8 v -8 h -8 z M 232 128 v 8 h 8 v -8 h -8 z M 232 136 v 8 h 8 v -8 h -8 z M 232 152 v 8 h 8 v -8 h -8 z M 232 160 v 8 h 8 v -8 h -8 z M 232 168 v 8 h 8 v -8 h -8 z M 232 192 v 8 h 8 v -8 h -8 z M 232 200 v 8 h 8 v -8 h -8 z M 232 208 v 8 h 8 v -8 h -8 z M 232 224 v 8 h 8 v -8 h -8 z M 232 232 v 8 h 8 v -8 h -8 z" fill="#4A4A4A"/></svg>